<?xml version="1.0" encoding="UTF-8" standalone="no"?>
<svg
   id="Layer_2"
   viewBox="0 0 1178.6 207.07"
   version="1.1"
   sodipodi:docname="logo-cs-white.svg"
   inkscape:version="1.2.2 (732a01da63, 2022-12-09)"
   xmlns:inkscape="http://www.inkscape.org/namespaces/inkscape"
   xmlns:sodipodi="http://sodipodi.sourceforge.net/DTD/sodipodi-0.dtd"
   xmlns="http://www.w3.org/2000/svg"
   xmlns:svg="http://www.w3.org/2000/svg">
  <sodipodi:namedview
     id="namedview100"
     pagecolor="#505050"
     bordercolor="#eeeeee"
     borderopacity="1"
     inkscape:showpageshadow="0"
     inkscape:pageopacity="0"
     inkscape:pagecheckerboard="0"
     inkscape:deskcolor="#505050"
     showgrid="false"
     inkscape:zoom="0.51162397"
     inkscape:cx="275.59303"
     inkscape:cy="-70.364178"
     inkscape:window-width="1920"
     inkscape:window-height="1009"
     inkscape:window-x="-8"
     inkscape:window-y="-8"
     inkscape:window-maximized="1"
     inkscape:current-layer="g94" />
  <defs
     id="defs4">
    <style
       id="style2">
      .cls-1 {
        fill: #fff;
      }
    </style>
  </defs>
  <g
     id="logo">
    <g
       id="g96">
      <g
         id="g12">
        <path
           class="cls-1"
           d="M69.02,69.02v69.02H0c0-38.12,30.9-69.02,69.02-69.02h0Z"
           id="path6" />
        <path
           class="cls-1"
           d="M207.07,0h0c0,38.12-30.9,69.02-69.02,69.02h-69.02V0h138.05Z"
           id="path8" />
        <path
           class="cls-1"
           d="M207.07,138.05h0c0,38.12-30.9,69.02-69.02,69.02h-69.02v-69.02h138.05Z"
           id="path10" />
      </g>
      <g
         id="g56">
        <path
           class="cls-1"
           d="M273.14,82.16c-5.32,0-9.79-.79-13.4-2.36-3.61-1.57-6.32-3.91-8.13-6.99-1.81-3.09-2.71-6.89-2.71-11.39,0-6.6,2.08-11.7,6.24-15.3,4.16-3.59,10.12-5.39,17.89-5.39,4.47,0,8.41.61,11.83,1.84,3.42,1.22,6.08,3.01,7.98,5.36,1.9,2.35,2.86,5.24,2.86,8.66h-7.4c0-2.18-.64-3.96-1.92-5.36-1.28-1.4-3.08-2.44-5.39-3.12-2.31-.68-5.02-1.02-8.13-1.02s-6.06.52-8.51,1.54c-2.45,1.03-4.35,2.56-5.71,4.57-1.36,2.02-2.04,4.51-2.04,7.46v1.46c0,3.03.69,5.56,2.07,7.6,1.38,2.04,3.3,3.56,5.77,4.57,2.47,1.01,5.33,1.52,8.6,1.52s5.92-.33,8.22-.99c2.29-.66,4.07-1.7,5.33-3.12,1.26-1.42,1.89-3.18,1.89-5.27h7.28c0,3.34-.95,6.19-2.86,8.54-1.9,2.35-4.55,4.14-7.93,5.36-3.38,1.22-7.32,1.83-11.83,1.83Z"
           id="path14" />
        <path
           class="cls-1"
           d="M309.98,81.47v-40.04h7.52v16.32h28.61v-16.32h7.52v40.04h-7.52v-17.08h-28.61v17.08h-7.52Z"
           id="path16" />
        <path
           class="cls-1"
           d="M369.71,81.47v-40.04h30.83c2.72,0,4.98.55,6.79,1.66,1.81,1.11,3.16,2.58,4.05,4.43.89,1.85,1.34,3.91,1.34,6.21,0,2.41-.63,4.64-1.89,6.7-1.26,2.06-3.16,3.61-5.68,4.66l8.57,16.38h-8.45l-7.63-14.98h-20.4v14.98h-7.52ZM377.23,60.19h21.39c2.02,0,3.59-.59,4.72-1.78,1.13-1.18,1.69-2.71,1.69-4.57,0-1.28-.24-2.37-.73-3.26-.49-.89-1.22-1.58-2.19-2.07-.97-.48-2.14-.73-3.5-.73h-21.39v12.41Z"
           id="path18" />
        <path
           class="cls-1"
           d="M474.2,82.16c-2.91,0-5.67-.17-8.27-.52-2.6-.35-4.9-.99-6.88-1.92-1.98-.93-3.53-2.22-4.63-3.88-1.11-1.65-1.66-3.8-1.66-6.44v-.38c0-.14.02-.24.06-.32h7.46c-.04.16-.07.35-.09.58-.02.23-.03.51-.03.82,0,1.32.56,2.42,1.69,3.29,1.13.87,2.74,1.51,4.84,1.92,2.1.41,4.56.61,7.4.61,1.28,0,2.55-.06,3.82-.18,1.26-.12,2.46-.3,3.58-.55s2.13-.58,3-.99c.87-.41,1.57-.92,2.1-1.54.52-.62.79-1.34.79-2.16,0-1.17-.47-2.11-1.4-2.83-.93-.72-2.2-1.3-3.79-1.75-1.59-.45-3.39-.82-5.39-1.11-2-.29-4.06-.6-6.18-.93-2.12-.33-4.17-.77-6.15-1.31-1.98-.54-3.77-1.24-5.36-2.1-1.59-.85-2.86-1.97-3.79-3.35-.93-1.38-1.4-3.08-1.4-5.1,0-1.75.42-3.31,1.25-4.69.83-1.38,2.09-2.56,3.76-3.55,1.67-.99,3.77-1.75,6.29-2.27,2.53-.52,5.5-.79,8.92-.79s6.41.29,8.86.87,4.45,1.39,6,2.42c1.55,1.03,2.69,2.22,3.41,3.58.72,1.36,1.08,2.82,1.08,4.37v.99h-7.34v-.93c0-.93-.48-1.78-1.43-2.53-.95-.76-2.29-1.37-4.02-1.84-1.73-.47-3.74-.7-6.03-.7-2.99,0-5.44.2-7.34.61-1.9.41-3.31.96-4.23,1.66-.91.7-1.37,1.54-1.37,2.51s.46,1.84,1.37,2.48c.91.64,2.17,1.16,3.76,1.54,1.59.39,3.39.73,5.39,1.02,2,.29,4.06.61,6.18.96,2.12.35,4.17.79,6.15,1.31,1.98.52,3.77,1.23,5.36,2.13,1.59.89,2.86,2.02,3.79,3.38.93,1.36,1.4,3.03,1.4,5.01,0,3.07-.88,5.53-2.65,7.37-1.77,1.85-4.22,3.18-7.34,3.99-3.13.82-6.77,1.22-10.93,1.22Z"
           id="path20" />
        <path
           class="cls-1"
           d="M522.1,81.47v-33.39h-17.95v-6.64h43.42c0,3.67-2.97,6.64-6.64,6.64h-11.31v33.39h-7.52Z"
           id="path22" />
        <path
           class="cls-1"
           d="M578.4,81.47l20.22-40.04h8.57l20.22,40.04h-8.28l-4.31-8.63h-24.36l-4.31,8.63h-7.75ZM593.49,66.66h18.3l-5.3-10.9c-.19-.43-.48-1.04-.85-1.84-.37-.8-.74-1.62-1.11-2.48-.37-.85-.71-1.61-1.02-2.27-.31-.66-.52-1.07-.64-1.22h-.47c-.35.78-.76,1.68-1.22,2.71-.47,1.03-.91,2.01-1.34,2.94-.43.93-.78,1.67-1.05,2.21l-5.3,10.84Z"
           id="path24" />
        <path
           class="cls-1"
           d="M639.12,81.47v-40.04h7.17l23.6,23.37c.47.43,1.02.98,1.66,1.66.64.68,1.3,1.37,1.98,2.07.68.7,1.25,1.32,1.72,1.86h.47c-.04-.78-.08-1.75-.12-2.91-.04-1.17-.06-2.16-.06-2.97v-23.08h7.23v40.04h-6.94l-23.66-23.6c-.97-.97-1.98-2.02-3.03-3.15-1.05-1.13-1.88-2.02-2.51-2.68h-.41c.04.58.07,1.5.09,2.74.02,1.24.03,2.58.03,4.02v22.67h-7.23Z"
           id="path26" />
        <path
           class="cls-1"
           d="M741.11,82.16c-2.91,0-5.67-.17-8.27-.52-2.6-.35-4.9-.99-6.88-1.92-1.98-.93-3.53-2.22-4.63-3.88-1.11-1.65-1.66-3.8-1.66-6.44v-.38c0-.14.02-.24.06-.32h7.46c-.04.16-.07.35-.09.58-.02.23-.03.51-.03.82,0,1.32.56,2.42,1.69,3.29,1.13.87,2.74,1.51,4.84,1.92,2.1.41,4.56.61,7.4.61,1.28,0,2.55-.06,3.82-.18,1.26-.12,2.46-.3,3.58-.55s2.13-.58,3-.99c.87-.41,1.57-.92,2.1-1.54s.79-1.34.79-2.16c0-1.17-.47-2.11-1.4-2.83-.93-.72-2.19-1.3-3.79-1.75-1.59-.45-3.39-.82-5.39-1.11s-4.06-.6-6.18-.93c-2.12-.33-4.17-.77-6.15-1.31-1.98-.54-3.77-1.24-5.36-2.1-1.59-.85-2.86-1.97-3.79-3.35-.93-1.38-1.4-3.08-1.4-5.1,0-1.75.42-3.31,1.25-4.69.83-1.38,2.09-2.56,3.76-3.55,1.67-.99,3.77-1.75,6.29-2.27,2.53-.52,5.5-.79,8.92-.79s6.41.29,8.86.87c2.45.58,4.45,1.39,6,2.42,1.55,1.03,2.69,2.22,3.41,3.58.72,1.36,1.08,2.82,1.08,4.37v.99h-7.34v-.93c0-.93-.48-1.78-1.43-2.53-.95-.76-2.29-1.37-4.02-1.84-1.73-.47-3.74-.7-6.03-.7-2.99,0-5.44.2-7.34.61-1.9.41-3.31.96-4.23,1.66-.91.7-1.37,1.54-1.37,2.51s.46,1.84,1.37,2.48c.91.64,2.17,1.16,3.76,1.54,1.59.39,3.39.73,5.39,1.02,2,.29,4.06.61,6.18.96,2.12.35,4.17.79,6.15,1.31,1.98.52,3.77,1.23,5.36,2.13,1.59.89,2.86,2.02,3.79,3.38.93,1.36,1.4,3.03,1.4,5.01,0,3.07-.88,5.53-2.65,7.37-1.77,1.85-4.22,3.18-7.34,3.99-3.13.82-6.77,1.22-10.93,1.22Z"
           id="path28" />
        <path
           class="cls-1"
           d="M797.98,82.16c-5.32,0-9.79-.79-13.4-2.36-3.61-1.57-6.32-3.91-8.13-6.99-1.81-3.09-2.71-6.89-2.71-11.39,0-6.6,2.08-11.7,6.24-15.3,4.16-3.59,10.12-5.39,17.89-5.39,4.47,0,8.41.61,11.83,1.84,3.42,1.22,6.08,3.01,7.98,5.36,1.9,2.35,2.86,5.24,2.86,8.66h-7.4c0-2.18-.64-3.96-1.92-5.36s-3.08-2.44-5.39-3.12c-2.31-.68-5.02-1.02-8.13-1.02s-6.06.52-8.51,1.54c-2.45,1.03-4.35,2.56-5.71,4.57-1.36,2.02-2.04,4.51-2.04,7.46v1.46c0,3.03.69,5.56,2.07,7.6s3.3,3.56,5.77,4.57c2.47,1.01,5.33,1.52,8.6,1.52s5.92-.33,8.22-.99c2.29-.66,4.07-1.7,5.33-3.12s1.89-3.18,1.89-5.27h7.28c0,3.34-.95,6.19-2.86,8.54-1.9,2.35-4.54,4.14-7.93,5.36-3.38,1.22-7.32,1.83-11.83,1.83Z"
           id="path30" />
        <path
           class="cls-1"
           d="M834.82,81.47v-40.04h7.52v16.32h28.61v-16.32h7.52v40.04h-7.52v-17.08h-28.61v17.08h-7.52Z"
           id="path32" />
        <path
           class="cls-1"
           d="M903.17,81.47l-13.81-40.04h8.16l8.68,26.63c.15.43.33,1.01.52,1.75.19.74.41,1.49.64,2.24.23.76.43,1.45.58,2.07h.41c.08-.47.19-.97.35-1.51.15-.54.3-1.11.44-1.69.14-.58.27-1.12.41-1.6s.26-.9.38-1.25l7.93-26.63h10.37l7.98,26.63c.12.43.27,1,.47,1.72.19.72.4,1.47.61,2.24.21.78.38,1.48.5,2.1h.41c.12-.43.25-.92.41-1.49.15-.56.32-1.12.5-1.66.17-.54.34-1.07.5-1.57.15-.51.29-.95.41-1.34l8.68-26.63h7.4l-13.87,40.04h-9.38l-8.33-26.98c-.16-.5-.34-1.13-.55-1.86-.21-.74-.4-1.49-.55-2.24-.15-.76-.29-1.43-.41-2.01h-.41c-.08.58-.22,1.27-.44,2.07-.21.8-.42,1.55-.61,2.27-.19.72-.37,1.31-.52,1.78l-8.16,26.98h-9.67Z"
           id="path34" />
        <path
           class="cls-1"
           d="M959.24,81.47l20.22-40.04h8.57l20.22,40.04h-8.27l-4.31-8.63h-24.36l-4.31,8.63h-7.75ZM974.33,66.66h18.3l-5.3-10.9c-.19-.43-.48-1.04-.84-1.84-.37-.8-.74-1.62-1.11-2.48-.37-.85-.71-1.61-1.02-2.27-.31-.66-.52-1.07-.64-1.22h-.47c-.35.78-.76,1.68-1.22,2.71-.47,1.03-.91,2.01-1.34,2.94-.43.93-.78,1.67-1.05,2.21l-5.3,10.84Z"
           id="path36" />
        <path
           class="cls-1"
           d="M1019.96,81.47v-40.04h7.17l23.6,23.37c.47.43,1.02.98,1.66,1.66.64.68,1.3,1.37,1.98,2.07.68.7,1.25,1.32,1.72,1.86h.47c-.04-.78-.08-1.75-.12-2.91-.04-1.17-.06-2.16-.06-2.97v-23.08h7.23v40.04h-6.93l-23.66-23.6c-.97-.97-1.98-2.02-3.03-3.15-1.05-1.13-1.88-2.02-2.51-2.68h-.41c.04.58.07,1.5.09,2.74.02,1.24.03,2.58.03,4.02v22.67h-7.23Z"
           id="path38" />
        <path
           class="cls-1"
           d="M1098.81,82.16c-2.91,0-5.67-.17-8.27-.52-2.6-.35-4.9-.99-6.88-1.92s-3.53-2.22-4.63-3.88c-1.11-1.65-1.66-3.8-1.66-6.44v-.38c0-.14.02-.24.06-.32h7.46c-.04.16-.07.35-.09.58-.02.23-.03.51-.03.82,0,1.32.56,2.42,1.69,3.29,1.13.87,2.74,1.51,4.84,1.92,2.1.41,4.57.61,7.4.61,1.28,0,2.55-.06,3.82-.18,1.26-.12,2.46-.3,3.58-.55s2.13-.58,3-.99c.87-.41,1.57-.92,2.1-1.54s.79-1.34.79-2.16c0-1.17-.47-2.11-1.4-2.83-.93-.72-2.2-1.3-3.79-1.75-1.59-.45-3.39-.82-5.39-1.11-2-.29-4.06-.6-6.18-.93-2.12-.33-4.17-.77-6.15-1.31-1.98-.54-3.77-1.24-5.36-2.1-1.59-.85-2.85-1.97-3.79-3.35-.93-1.38-1.4-3.08-1.4-5.1,0-1.75.42-3.31,1.25-4.69.84-1.38,2.09-2.56,3.76-3.55,1.67-.99,3.77-1.75,6.29-2.27,2.53-.52,5.5-.79,8.92-.79s6.41.29,8.86.87c2.45.58,4.45,1.39,6,2.42,1.55,1.03,2.69,2.22,3.41,3.58.72,1.36,1.08,2.82,1.08,4.37v.99h-7.34v-.93c0-.93-.48-1.78-1.43-2.53-.95-.76-2.29-1.37-4.02-1.84-1.73-.47-3.74-.7-6.03-.7-2.99,0-5.44.2-7.34.61-1.9.41-3.31.96-4.23,1.66-.91.7-1.37,1.54-1.37,2.51s.46,1.84,1.37,2.48c.91.64,2.16,1.16,3.76,1.54,1.59.39,3.39.73,5.39,1.02s4.06.61,6.18.96c2.12.35,4.17.79,6.15,1.31,1.98.52,3.77,1.23,5.36,2.13,1.59.89,2.86,2.02,3.79,3.38.93,1.36,1.4,3.03,1.4,5.01,0,3.07-.88,5.53-2.65,7.37-1.77,1.85-4.22,3.18-7.34,3.99-3.13.82-6.77,1.22-10.93,1.22Z"
           id="path40" />
        <path
           class="cls-1"
           d="M1133.19,81.47v-40.04h39.92v6.35h-32.4v10.08h29.02v6.35h-29.02v10.9h32.87v6.35h-40.39Z"
           id="path42" />
        <g
           id="g48">
          <rect
             class="cls-1"
             x="426.88"
             y="47.13"
             width="7.52"
             height="34.34"
             id="rect44" />
          <path
             class="cls-1"
             d="M445.79,41.43c0,3.15-2.55,5.7-5.7,5.7h-5.69v-5.7h11.39Z"
             id="path46" />
        </g>
        <g
           id="g54">
          <rect
             class="cls-1"
             x="559.22"
             y="47.13"
             width="7.52"
             height="34.34"
             id="rect50" />
          <path
             class="cls-1"
             d="M578.13,41.43c0,3.15-2.55,5.7-5.7,5.7h-5.69v-5.7h11.39Z"
             id="path52" />
        </g>
      </g>
      <g
         id="g94">
        <path
           class="cls-1"
           d="M269.53,165.13c-2.74,0-5.36-.16-7.86-.49-2.51-.33-4.73-.91-6.68-1.76-1.95-.85-3.48-2.06-4.59-3.64-1.12-1.58-1.68-3.6-1.68-6.07v-.64c0-.19.02-.33.06-.41h5.09c-.04.19-.07.42-.09.69-.02.27-.03.62-.03,1.04,0,1.5.63,2.77,1.88,3.82,1.25,1.04,3.05,1.82,5.4,2.34,2.35.52,5.14.78,8.38.78,1.54,0,3.04-.08,4.51-.23,1.46-.15,2.83-.4,4.1-.72s2.38-.76,3.32-1.3c.94-.54,1.69-1.2,2.25-1.99.56-.79.84-1.7.84-2.75,0-1.42-.48-2.58-1.44-3.47-.96-.89-2.26-1.6-3.9-2.14-1.64-.54-3.49-.98-5.55-1.33-2.06-.35-4.17-.68-6.33-1.01-2.16-.33-4.26-.74-6.3-1.24-2.04-.5-3.88-1.15-5.52-1.94-1.64-.79-2.94-1.83-3.9-3.12-.96-1.29-1.44-2.92-1.44-4.88,0-1.46.35-2.83,1.04-4.1.69-1.27,1.81-2.4,3.35-3.38,1.54-.98,3.55-1.74,6.04-2.28,2.49-.54,5.5-.81,9.05-.81s6.63.31,9.02.93c2.39.62,4.28,1.44,5.66,2.48,1.39,1.04,2.36,2.19,2.92,3.44.56,1.25.84,2.49.84,3.73v1.16h-5.03v-1.21c0-1.08-.49-2.09-1.47-3.03-.98-.94-2.44-1.71-4.36-2.28-1.93-.58-4.3-.87-7.11-.87-3.24,0-5.94.23-8.12.69-2.18.46-3.81,1.15-4.91,2.05-1.1.91-1.65,2.01-1.65,3.32,0,1.23.47,2.25,1.42,3.03.94.79,2.24,1.43,3.9,1.91,1.66.48,3.51.9,5.55,1.24,2.04.35,4.14.69,6.3,1.04,2.16.35,4.26.77,6.3,1.27,2.04.5,3.89,1.17,5.55,1.99,1.66.83,2.96,1.91,3.9,3.24.94,1.33,1.42,2.96,1.42,4.88,0,2.97-.85,5.34-2.54,7.11-1.7,1.77-4.06,3.03-7.08,3.79-3.03.75-6.52,1.13-10.49,1.13Z"
           id="path58" />
        <path
           class="cls-1"
           d="M326.06,165.13c-5.09,0-9.5-.78-13.23-2.34-3.74-1.56-6.61-3.86-8.61-6.91-2-3.04-3.01-6.8-3.01-11.27s1-8.27,3.01-11.3c2-3.02,4.87-5.32,8.61-6.88,3.74-1.56,8.15-2.34,13.23-2.34s9.6.78,13.32,2.34c3.72,1.56,6.58,3.85,8.58,6.88,2,3.03,3.01,6.79,3.01,11.3s-1,8.23-3.01,11.27c-2,3.04-4.86,5.35-8.58,6.91-3.72,1.56-8.16,2.34-13.32,2.34ZM326.11,160.74c2.77,0,5.35-.29,7.72-.87s4.44-1.48,6.21-2.72c1.77-1.23,3.16-2.84,4.16-4.83,1-1.98,1.5-4.36,1.5-7.14v-1.27c0-2.74-.5-5.09-1.5-7.05-1-1.97-2.39-3.56-4.16-4.8-1.77-1.23-3.84-2.15-6.21-2.75-2.37-.6-4.94-.9-7.72-.9s-5.35.3-7.72.9c-2.37.6-4.46,1.51-6.27,2.75-1.81,1.23-3.21,2.83-4.19,4.8-.98,1.96-1.47,4.32-1.47,7.05v1.27c0,2.77.49,5.15,1.47,7.14s2.38,3.59,4.19,4.83c1.81,1.23,3.9,2.14,6.27,2.72,2.37.58,4.94.87,7.72.87Z"
           id="path60" />
        <path
           class="cls-1"
           d="M365.18,164.44v-39.65h36.12v4.33h-31.04v13.12h28.61v4.33h-28.61v17.86h-5.09Z"
           id="path62" />
        <path
           class="cls-1"
           d="M429.74,164.44v-35.14h-18.09v-4.51h41.27c0,2.49-2.02,4.51-4.51,4.51h-13.58v35.14h-5.09Z"
           id="path64" />
        <path
           class="cls-1"
           d="M472.57,164.44l-14.1-39.65h5.55l9.71,27.97c.15.46.36,1.1.61,1.91.25.81.52,1.63.81,2.46.29.83.53,1.57.72,2.22h.52c.08-.46.2-.98.38-1.56.17-.58.36-1.16.55-1.76.19-.6.38-1.18.55-1.76s.34-1.08.49-1.5l8.73-27.97h7.11l8.73,27.97c.15.46.35,1.09.58,1.88.23.79.47,1.61.72,2.46s.45,1.6.61,2.25h.52c.15-.5.33-1.05.52-1.65.19-.6.39-1.19.61-1.79.21-.6.41-1.18.61-1.73.19-.56.35-1.03.46-1.42l9.71-27.97h5.03l-14.1,39.65h-6.82l-8.84-28.09c-.12-.46-.29-1.06-.52-1.79-.23-.73-.46-1.51-.69-2.34s-.44-1.59-.64-2.28h-.52c-.15.65-.35,1.39-.58,2.2s-.46,1.59-.69,2.34c-.23.75-.42,1.38-.58,1.88l-8.79,28.09h-6.94Z"
           id="path66" />
        <path
           class="cls-1"
           d="M525.1,164.44l20.29-39.65h6.07l20.29,39.65h-5.61l-5.2-10.17h-25.31l-5.2,10.17h-5.32ZM537.76,149.99h21.04l-6.42-12.72c-.27-.46-.58-1.06-.93-1.79-.35-.73-.7-1.49-1.07-2.28-.37-.79-.71-1.53-1.04-2.22-.33-.69-.61-1.25-.84-1.68h-.46c-.39.85-.84,1.8-1.36,2.86-.52,1.06-1,2.05-1.44,2.98-.44.92-.8,1.64-1.07,2.14l-6.42,12.72Z"
           id="path68" />
        <path
           class="cls-1"
           d="M583.19,164.44v-39.65h29.01c2.58,0,4.75.51,6.5,1.53,1.75,1.02,3.08,2.41,3.99,4.16.9,1.75,1.36,3.75,1.36,5.98,0,2.54-.66,4.81-1.97,6.79-1.31,1.99-3.2,3.38-5.66,4.19l8.67,16.99h-5.78l-8.15-16.13h-22.89v16.13h-5.09ZM588.27,143.98h22.95c2.39,0,4.26-.7,5.61-2.11,1.35-1.41,2.02-3.19,2.02-5.35,0-1.5-.3-2.8-.9-3.9-.6-1.1-1.46-1.96-2.6-2.57-1.14-.62-2.51-.92-4.13-.92h-22.95v14.85Z"
           id="path70" />
        <path
           class="cls-1"
           d="M637.75,164.44v-39.65h38.61v4.33h-33.52v12.77h30.29v4.39h-30.29v13.76h33.98v4.39h-39.07Z"
           id="path72" />
        <path
           class="cls-1"
           d="M717.91,164.44v-39.65h19.82c4.78,0,8.87.74,12.28,2.22,3.41,1.48,6.04,3.7,7.89,6.65s2.77,6.6,2.77,10.95-.92,8-2.77,10.92c-1.85,2.93-4.48,5.14-7.89,6.65-3.41,1.5-7.5,2.25-12.28,2.25h-19.82ZM722.99,160.05h14.56c2.5,0,4.84-.27,6.99-.81,2.16-.54,4.05-1.41,5.69-2.6,1.64-1.19,2.91-2.72,3.81-4.59.91-1.87,1.36-4.13,1.36-6.79v-1.27c0-2.66-.45-4.92-1.36-6.79-.91-1.87-2.18-3.4-3.81-4.59-1.64-1.19-3.54-2.07-5.69-2.63-2.16-.56-4.49-.84-6.99-.84h-14.56v30.92Z"
           id="path76" />
        <path
           class="cls-1"
           d="M774.89,164.44v-39.65h38.61v4.33h-33.52v12.77h30.29v4.39h-30.29v13.76h33.98v4.39h-39.07Z"
           id="path78" />
        <path
           class="cls-1"
           d="M841.88,164.44l-19.19-39.65h5.72l12.66,26.53c.35.65.75,1.48,1.21,2.48.46,1,.94,2.02,1.44,3.06.5,1.04.94,1.97,1.33,2.77h.58c.35-.77.75-1.67,1.21-2.69.46-1.02.93-2.03,1.42-3.03.48-1,.9-1.85,1.24-2.54l12.66-26.59h5.49l-19.19,39.65h-6.59Z"
           id="path80" />
        <path
           class="cls-1"
           d="M878.17,164.44v-39.65h38.61v4.33h-33.52v12.77h30.29v4.39h-30.29v13.76h33.98v4.39h-39.07Z"
           id="path82" />
        <path
           class="cls-1"
           d="M931.4,164.44v-39.65h5.09v35.14h24.79v4.51h-29.88Z"
           id="path84" />
        <path
           class="cls-1"
           d="M993.13,165.13c-5.09,0-9.5-.78-13.24-2.34-3.74-1.56-6.61-3.86-8.61-6.91-2-3.04-3-6.8-3-11.27s1-8.27,3-11.3c2-3.02,4.87-5.32,8.61-6.88,3.74-1.56,8.15-2.34,13.24-2.34s9.6.78,13.32,2.34c3.72,1.56,6.58,3.85,8.58,6.88,2,3.03,3.01,6.79,3.01,11.3s-1,8.23-3.01,11.27c-2,3.04-4.86,5.35-8.58,6.91-3.72,1.56-8.16,2.34-13.32,2.34ZM993.19,160.74c2.77,0,5.35-.29,7.72-.87s4.44-1.48,6.21-2.72c1.77-1.23,3.16-2.84,4.16-4.83,1-1.98,1.5-4.36,1.5-7.14v-1.27c0-2.74-.5-5.09-1.5-7.05-1-1.97-2.39-3.56-4.16-4.8-1.77-1.23-3.84-2.15-6.21-2.75-2.37-.6-4.94-.9-7.72-.9s-5.35.3-7.72.9c-2.37.6-4.46,1.51-6.27,2.75-1.81,1.23-3.21,2.83-4.19,4.8-.98,1.96-1.47,4.32-1.47,7.05v1.27c0,2.77.49,5.15,1.47,7.14.98,1.98,2.38,3.59,4.19,4.83,1.81,1.23,3.9,2.14,6.27,2.72s4.94.87,7.72.87Z"
           id="path86" />
        <path
           class="cls-1"
           d="M1032.26,164.44v-39.65h27.63c2.47,0,4.6.52,6.39,1.56,1.79,1.04,3.17,2.47,4.13,4.28.96,1.81,1.44,3.87,1.44,6.18s-.48,4.43-1.44,6.24c-.96,1.81-2.33,3.24-4.1,4.28-1.77,1.04-3.91,1.56-6.42,1.56h-22.54v15.55h-5.09ZM1037.34,144.5h21.44c2.58,0,4.55-.7,5.9-2.11,1.35-1.41,2.02-3.25,2.02-5.52,0-1.54-.32-2.89-.95-4.05s-1.54-2.06-2.72-2.72c-1.18-.65-2.59-.98-4.25-.98h-21.44v15.37Z"
           id="path88" />
        <path
           class="cls-1"
           d="M1083.46,164.44v-39.65h38.61v4.33h-33.52v12.77h30.29v4.39h-30.29v13.76h33.98v4.39h-39.07Z"
           id="path90" />
        <path
           class="cls-1"
           d="M1136.69,164.44v-39.65h29.01c2.58,0,4.75.51,6.5,1.53,1.75,1.02,3.08,2.41,3.99,4.16.9,1.75,1.36,3.75,1.36,5.98,0,2.54-.66,4.81-1.97,6.79-1.31,1.99-3.2,3.38-5.66,4.19l8.67,16.99h-5.78l-8.15-16.13h-22.89v16.13h-5.09ZM1141.78,143.98h22.95c2.39,0,4.26-.7,5.61-2.11,1.35-1.41,2.02-3.19,2.02-5.35,0-1.5-.3-2.8-.9-3.9-.6-1.1-1.46-1.96-2.6-2.57s-2.51-.92-4.13-.92h-22.95v14.85Z"
           id="path92" />
      </g>
    </g>
  </g>
</svg>
