<?xml version="1.0" encoding="UTF-8" standalone="no"?>
<svg
   id="Layer_2"
   viewBox="0 0 944.38 111.71"
   version="1.1"
   sodipodi:docname="logo-cs-black-en.svg"
   inkscape:version="1.2.2 (732a01da63, 2022-12-09)"
   xmlns:inkscape="http://www.inkscape.org/namespaces/inkscape"
   xmlns:sodipodi="http://sodipodi.sourceforge.net/DTD/sodipodi-0.dtd"
   xmlns="http://www.w3.org/2000/svg"
   xmlns:svg="http://www.w3.org/2000/svg">
  <sodipodi:namedview
     id="namedview104"
     pagecolor="#505050"
     bordercolor="#eeeeee"
     borderopacity="1"
     inkscape:showpageshadow="0"
     inkscape:pageopacity="0"
     inkscape:pagecheckerboard="0"
     inkscape:deskcolor="#505050"
     showgrid="false"
     inkscape:zoom="1.2770283"
     inkscape:cx="472.19"
     inkscape:cy="56.380896"
     inkscape:window-width="1920"
     inkscape:window-height="1009"
     inkscape:window-x="1912"
     inkscape:window-y="-8"
     inkscape:window-maximized="1"
     inkscape:current-layer="logo" />
  <defs
     id="defs4">
    <style
       id="style2">
      .cls-1 {
        fill: #111;
      }
    </style>
  </defs>
  <g
     id="logo">
    <g
       id="g100">
      <g
         id="g12">
        <path
           class="cls-1"
           d="M37.24,37.24v37.24H0c0-20.57,16.67-37.24,37.24-37.24h0Z"
           id="path6" />
        <path
           class="cls-1"
           d="M111.71,0h0c0,20.57-16.67,37.24-37.24,37.24h-37.24V0h74.48Z"
           id="path8" />
        <path
           class="cls-1"
           d="M111.71,74.48h0c0,20.57-16.67,37.24-37.24,37.24h-37.24v-37.24h74.48Z"
           id="path10" />
      </g>
      <g
         id="g56">
        <path
           class="cls-1"
           d="M171.84,54.51c-4.57,0-8.4-.67-11.5-2.02-3.1-1.35-5.43-3.35-6.98-6-1.55-2.65-2.33-5.91-2.33-9.78,0-5.67,1.78-10.04,5.35-13.12,3.57-3.08,8.68-4.62,15.35-4.62,3.83,0,7.22.53,10.15,1.58,2.93,1.05,5.22,2.58,6.85,4.6,1.63,2.02,2.45,4.49,2.45,7.43h-6.35c0-1.87-.55-3.4-1.65-4.6-1.1-1.2-2.64-2.09-4.62-2.67-1.98-.58-4.31-.88-6.97-.88s-5.2.44-7.3,1.33c-2.1.88-3.73,2.19-4.9,3.92-1.17,1.73-1.75,3.87-1.75,6.4v1.25c0,2.6.59,4.77,1.77,6.52,1.18,1.75,2.83,3.06,4.95,3.92,2.12.87,4.57,1.3,7.38,1.3s5.08-.28,7.05-.85c1.97-.57,3.49-1.46,4.58-2.67,1.08-1.22,1.62-2.72,1.62-4.53h6.25c0,2.87-.82,5.31-2.45,7.33-1.63,2.02-3.9,3.55-6.8,4.6-2.9,1.05-6.28,1.57-10.15,1.57Z"
           id="path14" />
        <path
           class="cls-1"
           d="M203.44,53.91V19.56h6.45v14h24.55v-14h6.45v34.35h-6.45v-14.65h-24.55v14.65h-6.45Z"
           id="path16" />
        <path
           class="cls-1"
           d="M254.69,53.91V19.56h26.45c2.33,0,4.27.47,5.82,1.42,1.55.95,2.71,2.22,3.48,3.8.77,1.58,1.15,3.36,1.15,5.33,0,2.07-.54,3.98-1.62,5.75-1.08,1.77-2.71,3.1-4.88,4l7.35,14.05h-7.25l-6.55-12.85h-17.5v12.85h-6.45ZM261.14,35.66h18.35c1.73,0,3.08-.51,4.05-1.53.97-1.02,1.45-2.32,1.45-3.92,0-1.1-.21-2.03-.62-2.8-.42-.77-1.04-1.36-1.88-1.78-.83-.42-1.83-.62-3-.62h-18.35v10.65Z"
           id="path18" />
        <path
           class="cls-1"
           d="M344.34,54.51c-2.5,0-4.87-.15-7.1-.45-2.23-.3-4.2-.85-5.9-1.65-1.7-.8-3.02-1.91-3.97-3.33-.95-1.42-1.43-3.26-1.43-5.52v-.33c0-.12.02-.21.05-.28h6.4c-.03.13-.06.3-.08.5-.02.2-.02.43-.02.7,0,1.13.48,2.08,1.45,2.83.97.75,2.35,1.3,4.15,1.65,1.8.35,3.92.53,6.35.53,1.1,0,2.19-.05,3.27-.15,1.08-.1,2.11-.26,3.07-.47s1.83-.5,2.58-.85c.75-.35,1.35-.79,1.8-1.33.45-.53.68-1.15.68-1.85,0-1-.4-1.81-1.2-2.42-.8-.62-1.88-1.12-3.25-1.5-1.37-.38-2.91-.7-4.62-.95-1.72-.25-3.48-.52-5.3-.8-1.82-.28-3.58-.66-5.27-1.12-1.7-.47-3.23-1.07-4.6-1.8-1.37-.73-2.45-1.69-3.25-2.88-.8-1.18-1.2-2.64-1.2-4.38,0-1.5.36-2.84,1.08-4.03.72-1.18,1.79-2.2,3.23-3.05,1.43-.85,3.23-1.5,5.4-1.95,2.17-.45,4.72-.67,7.65-.67s5.5.25,7.6.75,3.82,1.19,5.15,2.08c1.33.88,2.31,1.91,2.92,3.08.62,1.17.93,2.42.93,3.75v.85h-6.3v-.8c0-.8-.41-1.53-1.22-2.17-.82-.65-1.97-1.17-3.45-1.58-1.48-.4-3.21-.6-5.17-.6-2.57,0-4.67.17-6.3.52-1.63.35-2.84.83-3.62,1.42-.78.6-1.17,1.32-1.17,2.15s.39,1.58,1.17,2.12c.78.55,1.86.99,3.23,1.33,1.37.33,2.91.62,4.62.88,1.72.25,3.48.52,5.3.83,1.82.3,3.58.67,5.28,1.12,1.7.45,3.23,1.06,4.6,1.82,1.37.77,2.45,1.73,3.25,2.9.8,1.17,1.2,2.6,1.2,4.3,0,2.63-.76,4.74-2.27,6.33-1.52,1.58-3.62,2.72-6.3,3.42-2.68.7-5.81,1.05-9.38,1.05Z"
           id="path20" />
        <path
           class="cls-1"
           d="M385.44,53.91v-28.65h-15.4v-5.7h37.25c0,3.15-2.55,5.7-5.7,5.7h-9.7v28.65h-6.45Z"
           id="path22" />
        <path
           class="cls-1"
           d="M433.74,53.91l17.35-34.35h7.35l17.35,34.35h-7.1l-3.7-7.4h-20.9l-3.7,7.4h-6.65ZM446.69,41.21h15.7l-4.55-9.35c-.17-.37-.41-.89-.73-1.58-.32-.68-.63-1.39-.95-2.12-.32-.73-.61-1.38-.88-1.95-.27-.57-.45-.92-.55-1.05h-.4c-.3.67-.65,1.44-1.05,2.33-.4.88-.78,1.72-1.15,2.52-.37.8-.67,1.43-.9,1.9l-4.55,9.3Z"
           id="path24" />
        <path
           class="cls-1"
           d="M485.84,53.91V19.56h6.15l20.25,20.05c.4.37.88.84,1.43,1.42.55.58,1.12,1.17,1.7,1.78.58.6,1.08,1.13,1.48,1.6h.4c-.03-.67-.07-1.5-.1-2.5-.03-1-.05-1.85-.05-2.55v-19.8h6.2v34.35h-5.95l-20.3-20.25c-.83-.83-1.7-1.73-2.6-2.7-.9-.97-1.62-1.73-2.15-2.3h-.35c.03.5.06,1.28.08,2.35.02,1.07.02,2.22.02,3.45v19.45h-6.2Z"
           id="path26" />
        <path
           class="cls-1"
           d="M573.34,54.51c-2.5,0-4.87-.15-7.1-.45-2.23-.3-4.2-.85-5.9-1.65-1.7-.8-3.02-1.91-3.97-3.33-.95-1.42-1.43-3.26-1.43-5.52v-.33c0-.12.02-.21.05-.28h6.4c-.03.13-.06.3-.08.5-.02.2-.02.43-.02.7,0,1.13.48,2.08,1.45,2.83.97.75,2.35,1.3,4.15,1.65,1.8.35,3.92.53,6.35.53,1.1,0,2.19-.05,3.27-.15,1.08-.1,2.11-.26,3.08-.47s1.83-.5,2.58-.85c.75-.35,1.35-.79,1.8-1.33s.67-1.15.67-1.85c0-1-.4-1.81-1.2-2.42-.8-.62-1.88-1.12-3.25-1.5-1.37-.38-2.91-.7-4.62-.95s-3.48-.52-5.3-.8c-1.82-.28-3.57-.66-5.27-1.12-1.7-.47-3.23-1.07-4.6-1.8-1.37-.73-2.45-1.69-3.25-2.88-.8-1.18-1.2-2.64-1.2-4.38,0-1.5.36-2.84,1.08-4.03.72-1.18,1.79-2.2,3.23-3.05,1.43-.85,3.23-1.5,5.4-1.95,2.17-.45,4.72-.67,7.65-.67s5.5.25,7.6.75c2.1.5,3.82,1.19,5.15,2.08,1.33.88,2.31,1.91,2.92,3.08.62,1.17.92,2.42.92,3.75v.85h-6.3v-.8c0-.8-.41-1.53-1.22-2.17-.82-.65-1.97-1.17-3.45-1.58-1.48-.4-3.21-.6-5.17-.6-2.57,0-4.67.17-6.3.52-1.63.35-2.84.83-3.62,1.42-.78.6-1.17,1.32-1.17,2.15s.39,1.58,1.17,2.12c.78.55,1.86.99,3.23,1.33,1.37.33,2.91.62,4.62.88,1.72.25,3.48.52,5.3.83,1.82.3,3.58.67,5.28,1.12,1.7.45,3.23,1.06,4.6,1.82,1.37.77,2.45,1.73,3.25,2.9.8,1.17,1.2,2.6,1.2,4.3,0,2.63-.76,4.74-2.28,6.33-1.52,1.58-3.62,2.72-6.3,3.42-2.68.7-5.81,1.05-9.38,1.05Z"
           id="path28" />
        <path
           class="cls-1"
           d="M622.13,54.51c-4.57,0-8.4-.67-11.5-2.02-3.1-1.35-5.43-3.35-6.98-6-1.55-2.65-2.33-5.91-2.33-9.78,0-5.67,1.78-10.04,5.35-13.12,3.57-3.08,8.68-4.62,15.35-4.62,3.83,0,7.22.53,10.15,1.58,2.93,1.05,5.22,2.58,6.85,4.6,1.63,2.02,2.45,4.49,2.45,7.43h-6.35c0-1.87-.55-3.4-1.65-4.6s-2.64-2.09-4.62-2.67c-1.98-.58-4.31-.88-6.97-.88s-5.2.44-7.3,1.33c-2.1.88-3.73,2.19-4.9,3.92-1.17,1.73-1.75,3.87-1.75,6.4v1.25c0,2.6.59,4.77,1.77,6.52s2.83,3.06,4.95,3.92c2.12.87,4.58,1.3,7.38,1.3s5.08-.28,7.05-.85c1.97-.57,3.49-1.46,4.58-2.67s1.62-2.72,1.62-4.53h6.25c0,2.87-.82,5.31-2.45,7.33-1.63,2.02-3.9,3.55-6.8,4.6-2.9,1.05-6.28,1.57-10.15,1.57Z"
           id="path30" />
        <path
           class="cls-1"
           d="M653.73,53.91V19.56h6.45v14h24.55v-14h6.45v34.35h-6.45v-14.65h-24.55v14.65h-6.45Z"
           id="path32" />
        <path
           class="cls-1"
           d="M712.38,53.91l-11.85-34.35h7l7.45,22.85c.13.37.28.87.45,1.5.17.63.35,1.28.55,1.92.2.65.37,1.24.5,1.78h.35c.07-.4.17-.83.3-1.3.13-.47.26-.95.38-1.45.12-.5.23-.96.35-1.38s.23-.78.33-1.08l6.8-22.85h8.9l6.85,22.85c.1.37.23.86.4,1.47.17.62.34,1.26.53,1.93.18.67.32,1.27.42,1.8h.35c.1-.37.22-.79.35-1.28.13-.48.27-.96.42-1.42.15-.47.29-.92.42-1.35.13-.43.25-.82.35-1.15l7.45-22.85h6.35l-11.9,34.35h-8.05l-7.15-23.15c-.13-.43-.29-.97-.47-1.6-.18-.63-.34-1.28-.48-1.92-.13-.65-.25-1.23-.35-1.73h-.35c-.07.5-.19,1.09-.38,1.78-.18.68-.36,1.33-.53,1.95-.17.62-.32,1.12-.45,1.52l-7,23.15h-8.3Z"
           id="path34" />
        <path
           class="cls-1"
           d="M760.48,53.91l17.35-34.35h7.35l17.35,34.35h-7.1l-3.7-7.4h-20.9l-3.7,7.4h-6.65ZM773.43,41.21h15.7l-4.55-9.35c-.17-.37-.41-.89-.72-1.58-.32-.68-.63-1.39-.95-2.12-.32-.73-.61-1.38-.88-1.95-.27-.57-.45-.92-.55-1.05h-.4c-.3.67-.65,1.44-1.05,2.33-.4.88-.78,1.72-1.15,2.52-.37.8-.67,1.43-.9,1.9l-4.55,9.3Z"
           id="path36" />
        <path
           class="cls-1"
           d="M812.58,53.91V19.56h6.15l20.25,20.05c.4.37.88.84,1.42,1.42.55.58,1.12,1.17,1.7,1.78.58.6,1.08,1.13,1.48,1.6h.4c-.03-.67-.07-1.5-.1-2.5-.03-1-.05-1.85-.05-2.55v-19.8h6.2v34.35h-5.95l-20.3-20.25c-.83-.83-1.7-1.73-2.6-2.7-.9-.97-1.62-1.73-2.15-2.3h-.35c.03.5.06,1.28.08,2.35.02,1.07.02,2.22.02,3.45v19.45h-6.2Z"
           id="path38" />
        <path
           class="cls-1"
           d="M880.23,54.51c-2.5,0-4.87-.15-7.1-.45-2.23-.3-4.2-.85-5.9-1.65s-3.02-1.91-3.97-3.33c-.95-1.42-1.42-3.26-1.42-5.52v-.33c0-.12.02-.21.05-.28h6.4c-.03.13-.06.3-.07.5-.02.2-.03.43-.03.7,0,1.13.48,2.08,1.45,2.83.97.75,2.35,1.3,4.15,1.65,1.8.35,3.92.53,6.35.53,1.1,0,2.19-.05,3.27-.15,1.08-.1,2.11-.26,3.08-.47s1.83-.5,2.58-.85c.75-.35,1.35-.79,1.8-1.33s.67-1.15.67-1.85c0-1-.4-1.81-1.2-2.42-.8-.62-1.88-1.12-3.25-1.5-1.37-.38-2.91-.7-4.62-.95-1.72-.25-3.48-.52-5.3-.8-1.82-.28-3.57-.66-5.27-1.12-1.7-.47-3.23-1.07-4.6-1.8-1.37-.73-2.45-1.69-3.25-2.88-.8-1.18-1.2-2.64-1.2-4.38,0-1.5.36-2.84,1.07-4.03.72-1.18,1.79-2.2,3.23-3.05,1.43-.85,3.23-1.5,5.4-1.95,2.17-.45,4.72-.67,7.65-.67s5.5.25,7.6.75c2.1.5,3.82,1.19,5.15,2.08,1.33.88,2.31,1.91,2.92,3.08.62,1.17.92,2.42.92,3.75v.85h-6.3v-.8c0-.8-.41-1.53-1.22-2.17-.82-.65-1.97-1.17-3.45-1.58-1.48-.4-3.21-.6-5.17-.6-2.57,0-4.67.17-6.3.52-1.63.35-2.84.83-3.62,1.42-.78.6-1.18,1.32-1.18,2.15s.39,1.58,1.18,2.12c.78.55,1.86.99,3.22,1.33,1.37.33,2.91.62,4.62.88s3.48.52,5.3.83c1.82.3,3.58.67,5.28,1.12,1.7.45,3.23,1.06,4.6,1.82,1.37.77,2.45,1.73,3.25,2.9.8,1.17,1.2,2.6,1.2,4.3,0,2.63-.76,4.74-2.28,6.33-1.52,1.58-3.62,2.72-6.3,3.42-2.68.7-5.81,1.05-9.38,1.05Z"
           id="path40" />
        <path
           class="cls-1"
           d="M909.73,53.91V19.56h34.25v5.45h-27.8v8.65h24.9v5.45h-24.9v9.35h28.2v5.45h-34.65Z"
           id="path42" />
        <g
           id="g48">
          <rect
             class="cls-1"
             x="303.74"
             y="24.44"
             width="6.45"
             height="29.46"
             id="rect44" />
          <path
             class="cls-1"
             d="M319.96,19.55c0,2.7-2.19,4.89-4.89,4.89h-4.88v-4.89h9.77Z"
             id="path46" />
        </g>
        <g
           id="g54">
          <rect
             class="cls-1"
             x="417.29"
             y="24.44"
             width="6.45"
             height="29.46"
             id="rect50" />
          <path
             class="cls-1"
             d="M433.51,19.55c0,2.7-2.19,4.89-4.89,4.89h-4.88v-4.89h9.77Z"
             id="path52" />
        </g>
      </g>
      <g
         id="g98">
        <path
           class="cls-1"
           d="M166.94,107.07c-2.11,0-4.13-.13-6.06-.38-1.93-.25-3.65-.71-5.15-1.36-1.5-.65-2.68-1.59-3.54-2.81-.86-1.22-1.29-2.78-1.29-4.68v-.49c0-.15.01-.25.04-.31h3.92c-.03.15-.05.33-.07.54-.02.21-.02.48-.02.8,0,1.16.48,2.14,1.45,2.94.97.8,2.36,1.4,4.17,1.81,1.81.4,3.97.6,6.47.6,1.19,0,2.35-.06,3.48-.18,1.13-.12,2.19-.3,3.17-.56s1.84-.59,2.56-1c.73-.42,1.31-.93,1.74-1.54.43-.61.65-1.32.65-2.12,0-1.1-.37-1.99-1.11-2.68-.74-.68-1.75-1.23-3.01-1.65-1.26-.42-2.69-.76-4.28-1.03-1.59-.27-3.22-.53-4.88-.78-1.67-.25-3.29-.57-4.86-.96-1.58-.39-3-.88-4.26-1.49-1.26-.61-2.27-1.41-3.01-2.41-.74-1-1.11-2.25-1.11-3.77,0-1.13.27-2.19.8-3.17.54-.98,1.4-1.85,2.59-2.61,1.19-.76,2.74-1.34,4.66-1.76,1.92-.42,4.24-.62,6.98-.62s5.11.24,6.96.71c1.84.48,3.3,1.11,4.37,1.92,1.07.8,1.82,1.69,2.25,2.65.43.97.65,1.92.65,2.88v.89h-3.88v-.94c0-.83-.38-1.61-1.14-2.34-.76-.73-1.88-1.32-3.37-1.76-1.49-.45-3.31-.67-5.48-.67-2.5,0-4.59.18-6.27.54-1.68.36-2.94.88-3.79,1.58-.85.7-1.27,1.55-1.27,2.56,0,.95.36,1.73,1.09,2.34.73.61,1.73,1.1,3.01,1.47,1.28.37,2.71.69,4.28.96,1.58.27,3.2.53,4.86.8,1.66.27,3.28.6,4.86.98,1.58.39,3,.9,4.28,1.54,1.28.64,2.28,1.47,3.01,2.5.73,1.03,1.09,2.28,1.09,3.77,0,2.29-.65,4.12-1.96,5.48-1.31,1.37-3.13,2.34-5.46,2.92-2.33.58-5.03.87-8.09.87Z"
           id="path58" />
        <path
           class="cls-1"
           d="M210.55,107.07c-3.92,0-7.33-.6-10.21-1.81-2.88-1.2-5.1-2.98-6.64-5.33-1.55-2.35-2.32-5.25-2.32-8.7s.77-6.38,2.32-8.72c1.55-2.33,3.76-4.1,6.64-5.31,2.88-1.2,6.29-1.81,10.21-1.81s7.41.6,10.28,1.81,5.08,2.97,6.62,5.31c1.55,2.33,2.32,5.24,2.32,8.72s-.77,6.35-2.32,8.7c-1.55,2.35-3.75,4.12-6.62,5.33-2.87,1.2-6.3,1.81-10.28,1.81ZM210.6,103.68c2.14,0,4.12-.22,5.95-.67s3.43-1.14,4.79-2.1c1.37-.95,2.44-2.19,3.21-3.72.77-1.53,1.16-3.37,1.16-5.51v-.98c0-2.11-.39-3.92-1.16-5.44-.77-1.52-1.84-2.75-3.21-3.7-1.37-.95-2.97-1.66-4.79-2.12-1.83-.46-3.81-.69-5.95-.69s-4.12.23-5.95.69c-1.83.46-3.44,1.17-4.84,2.12-1.4.95-2.47,2.19-3.23,3.7-.76,1.52-1.14,3.33-1.14,5.44v.98c0,2.14.38,3.98,1.14,5.51s1.84,2.77,3.23,3.72c1.4.95,3.01,1.65,4.84,2.1,1.83.45,3.81.67,5.95.67Z"
           id="path60" />
        <path
           class="cls-1"
           d="M240.74,106.53v-30.59h27.87v3.34h-23.95v10.12h22.07v3.34h-22.07v13.78h-3.92Z"
           id="path62" />
        <path
           class="cls-1"
           d="M290.55,106.53v-27.11h-13.96v-3.48h31.84c0,1.92-1.56,3.48-3.48,3.48h-10.48v27.11h-3.92Z"
           id="path64" />
        <path
           class="cls-1"
           d="M323.6,106.53l-10.88-30.59h4.28l7.49,21.58c.12.36.27.85.47,1.47.19.62.4,1.26.62,1.9.22.64.41,1.21.56,1.72h.4c.06-.36.16-.76.29-1.2.13-.45.27-.9.42-1.36.15-.46.29-.91.42-1.36s.26-.83.38-1.16l6.73-21.58h5.48l6.73,21.58c.12.36.27.84.45,1.45.18.61.36,1.24.56,1.9s.35,1.23.47,1.74h.4c.12-.39.25-.81.4-1.27.15-.46.3-.92.47-1.38.16-.46.32-.91.47-1.34.15-.43.27-.8.36-1.09l7.49-21.58h3.88l-10.88,30.59h-5.26l-6.82-21.67c-.09-.36-.22-.82-.4-1.38-.18-.56-.36-1.17-.54-1.81s-.34-1.23-.49-1.76h-.4c-.12.51-.27,1.07-.45,1.69s-.36,1.23-.54,1.81c-.18.58-.33,1.06-.45,1.45l-6.78,21.67h-5.35Z"
           id="path66" />
        <path
           class="cls-1"
           d="M364.13,106.53l15.65-30.59h4.68l15.65,30.59h-4.33l-4.01-7.85h-19.53l-4.01,7.85h-4.1ZM373.9,95.38h16.23l-4.95-9.81c-.21-.36-.45-.82-.71-1.38-.27-.56-.54-1.15-.82-1.76-.28-.61-.55-1.18-.8-1.72-.25-.53-.47-.97-.65-1.29h-.36c-.3.65-.65,1.39-1.05,2.21-.4.82-.77,1.58-1.11,2.3-.34.71-.62,1.26-.82,1.65l-4.95,9.81Z"
           id="path68" />
        <path
           class="cls-1"
           d="M408.95,106.53v-30.59h22.39c1.99,0,3.66.39,5.02,1.18,1.35.79,2.38,1.86,3.08,3.21.7,1.35,1.05,2.89,1.05,4.62,0,1.96-.51,3.71-1.52,5.24-1.01,1.53-2.47,2.61-4.37,3.23l6.69,13.11h-4.46l-6.29-12.44h-17.66v12.44h-3.92ZM412.87,90.75h17.7c1.84,0,3.28-.54,4.33-1.63,1.04-1.08,1.56-2.46,1.56-4.12,0-1.16-.23-2.16-.69-3.01-.46-.85-1.13-1.51-2.01-1.98-.88-.48-1.94-.71-3.19-.71h-17.7v11.46Z"
           id="path70" />
        <path
           class="cls-1"
           d="M451.05,106.53v-30.59h29.79v3.34h-25.86v9.86h23.37v3.39h-23.37v10.61h26.22v3.39h-30.15Z"
           id="path72" />
        <path
           class="cls-1"
           d="M489.31,96.32v-3.92h14.09c0,2.17-1.76,3.92-3.92,3.92h-10.17Z"
           id="path74" />
        <path
           class="cls-1"
           d="M512.9,106.53v-30.59h29.79v3.34h-25.86v9.86h23.37v3.39h-23.37v10.61h26.22v3.39h-30.15Z"
           id="path76" />
        <path
           class="cls-1"
           d="M553.97,106.53v-30.59h3.92l20.34,21c.33.33.69.71,1.09,1.16s.8.88,1.2,1.29c.4.42.75.79,1.05,1.11h.31c0-.51,0-1.17-.02-1.98s-.02-1.55-.02-2.21v-20.38h3.83v30.59h-3.61l-20.51-21.23c-.62-.65-1.26-1.34-1.92-2.07-.65-.73-1.17-1.3-1.56-1.72h-.31c0,.57,0,1.31.02,2.23s.02,1.78.02,2.59v20.2h-3.83Z"
           id="path78" />
        <path
           class="cls-1"
           d="M608.19,106.53v-27.11h-13.96v-3.48h31.84c0,1.92-1.56,3.48-3.48,3.48h-10.48v27.11h-3.92Z"
           id="path80" />
        <path
           class="cls-1"
           d="M643.91,106.53l-10.88-30.59h4.28l7.49,21.58c.12.36.28.85.47,1.47s.4,1.26.62,1.9c.22.64.41,1.21.56,1.72h.4c.06-.36.16-.76.29-1.2.13-.45.28-.9.42-1.36.15-.46.29-.91.42-1.36.13-.45.26-.83.38-1.16l6.73-21.58h5.48l6.73,21.58c.12.36.27.84.45,1.45.18.61.36,1.24.56,1.9s.35,1.23.47,1.74h.4c.12-.39.25-.81.4-1.27.15-.46.3-.92.47-1.38.16-.46.32-.91.47-1.34.15-.43.27-.8.36-1.09l7.49-21.58h3.88l-10.88,30.59h-5.26l-6.82-21.67c-.09-.36-.22-.82-.4-1.38-.18-.56-.36-1.17-.54-1.81s-.34-1.23-.49-1.76h-.4c-.12.51-.27,1.07-.45,1.69s-.36,1.23-.53,1.81c-.18.58-.33,1.06-.45,1.45l-6.78,21.67h-5.35Z"
           id="path82" />
        <path
           class="cls-1"
           d="M690.29,106.53v-30.59h3.92v30.59h-3.92Z"
           id="path84" />
        <path
           class="cls-1"
           d="M723.33,107.07c-3.92,0-7.24-.61-9.94-1.83-2.71-1.22-4.75-3.01-6.13-5.37-1.38-2.36-2.07-5.24-2.07-8.63,0-5.05,1.56-8.96,4.68-11.71,3.12-2.75,7.57-4.12,13.33-4.12,3.39,0,6.37.42,8.94,1.27,2.57.85,4.58,2.13,6.02,3.86,1.44,1.72,2.16,3.89,2.16,6.51h-3.92c0-1.99-.55-3.6-1.65-4.82-1.1-1.22-2.65-2.1-4.66-2.65s-4.33-.83-6.98-.83-5.06.42-7.16,1.27c-2.1.85-3.74,2.16-4.93,3.92-1.19,1.77-1.78,4.01-1.78,6.71v1.07c0,2.82.6,5.11,1.81,6.87,1.2,1.76,2.87,3.04,5,3.86,2.13.82,4.56,1.23,7.29,1.23s4.99-.28,6.96-.85c1.96-.56,3.49-1.46,4.57-2.68,1.09-1.22,1.63-2.78,1.63-4.68h3.88c0,2.62-.73,4.78-2.19,6.49-1.46,1.71-3.46,2.99-6.02,3.83s-5.5,1.27-8.83,1.27Z"
           id="path86" />
        <path
           class="cls-1"
           d="M751.25,106.53v-30.59h3.92v18.02l21.49-18.02h5.31l-14.31,12.22,14.94,18.37h-5.08l-12.84-16.05-9.5,7.63v8.43h-3.92Z"
           id="path88" />
        <path
           class="cls-1"
           d="M791.47,106.53v-30.59h3.92v27.11h19.13v3.48h-23.05Z"
           id="path90" />
        <path
           class="cls-1"
           d="M837.04,107.07c-3.6,0-6.56-.56-8.9-1.67-2.33-1.11-4.07-2.71-5.2-4.79-1.13-2.08-1.69-4.55-1.69-7.4v-17.26h3.97v17.39c0,3.33,1.02,5.89,3.06,7.67,2.04,1.78,4.96,2.68,8.76,2.68s6.73-.89,8.79-2.68,3.08-4.34,3.08-7.67v-17.39h3.92v17.26c0,2.85-.57,5.32-1.69,7.4-1.13,2.08-2.86,3.68-5.2,4.79-2.33,1.11-5.3,1.67-8.9,1.67Z"
           id="path92" />
        <path
           class="cls-1"
           d="M864.69,106.53v-30.59h3.92l20.33,21c.33.33.69.71,1.09,1.16s.8.88,1.2,1.29.75.79,1.05,1.11h.31c0-.51,0-1.17-.02-1.98s-.02-1.55-.02-2.21v-20.38h3.83v30.59h-3.61l-20.51-21.23c-.62-.65-1.26-1.34-1.92-2.07-.65-.73-1.17-1.3-1.56-1.72h-.31c0,.57,0,1.31.02,2.23s.02,1.78.02,2.59v20.2h-3.83Z"
           id="path94" />
        <path
           class="cls-1"
           d="M925.87,107.07c-6.18,0-10.81-1.32-13.89-3.95-3.08-2.63-4.62-6.59-4.62-11.88,0-3.45.77-6.35,2.32-8.72,1.55-2.36,3.76-4.14,6.64-5.33,2.88-1.19,6.32-1.78,10.3-1.78,2.76,0,5.24.22,7.43.65s4.04,1.1,5.57,2.01c1.53.91,2.7,2.06,3.5,3.46.8,1.4,1.2,3.06,1.2,4.99h-3.83c0-1.61-.38-2.91-1.14-3.92-.76-1.01-1.79-1.79-3.1-2.34s-2.78-.94-4.41-1.16-3.33-.33-5.08-.33c-2.05,0-4,.21-5.84.62-1.84.42-3.49,1.09-4.93,2.01-1.44.92-2.56,2.15-3.37,3.68-.8,1.53-1.2,3.38-1.2,5.55v1.07c0,2.94.62,5.29,1.85,7.05,1.23,1.75,2.93,3.02,5.08,3.79,2.16.77,4.63,1.16,7.43,1.16,3.66,0,6.56-.39,8.7-1.16,2.14-.77,3.68-1.87,4.62-3.28.94-1.41,1.4-3.05,1.4-4.93v-.71h-14.49v-3.3h18.37v16.23h-2.85l-.49-4.73c-1.04,1.31-2.36,2.35-3.97,3.12-1.61.77-3.37,1.32-5.28,1.65-1.92.33-3.89.49-5.91.49Z"
           id="path96" />
      </g>
    </g>
  </g>
</svg>
